<svg width="16" height="16" viewBox="0 0 16 16" fill="none" xmlns="http://www.w3.org/2000/svg">
<g clip-path="url(#clip0_1693_7772)">
<path d="M11.3335 2.66683H14.0002C14.177 2.66683 14.3465 2.73707 14.4716 2.86209C14.5966 2.98712 14.6668 3.15669 14.6668 3.3335V14.0002C14.6668 14.177 14.5966 14.3465 14.4716 14.4716C14.3465 14.5966 14.177 14.6668 14.0002 14.6668H2.00016C1.82335 14.6668 1.65378 14.5966 1.52876 14.4716C1.40373 14.3465 1.3335 14.177 1.3335 14.0002V3.3335C1.3335 3.15669 1.40373 2.98712 1.52876 2.86209C1.65378 2.73707 1.82335 2.66683 2.00016 2.66683H4.66683V1.3335H6.00016V2.66683H10.0002V1.3335H11.3335V2.66683ZM13.3335 6.66683V4.00016H11.3335V5.3335H10.0002V4.00016H6.00016V5.3335H4.66683V4.00016H2.66683V6.66683H13.3335ZM13.3335 8.00016H2.66683V13.3335H13.3335V8.00016ZM4.00016 9.3335H7.3335V12.0002H4.00016V9.3335Z" fill="#222831"/>
</g>
<defs>
<clipPath id="clip0_1693_7772">
<rect width="16" height="16" fill="white"/>
</clipPath>
</defs>
</svg>
