<svg width="12" height="15" viewBox="0 0 12 15" fill="none" xmlns="http://www.w3.org/2000/svg">
<path d="M1.75002 14.8833C1.38335 14.8833 1.07224 14.7528 0.816683 14.4917C0.561127 14.2306 0.43335 13.9222 0.43335 13.5667V6.5C0.43335 6.13333 0.561127 5.81944 0.816683 5.55833C1.07224 5.29722 1.38335 5.16667 1.75002 5.16667H2.73335V3.78333C2.73335 2.86111 3.05002 2.08056 3.68335 1.44167C4.31668 0.802778 5.08891 0.483334 6.00002 0.483334C6.91113 0.483334 7.68335 0.802778 8.31668 1.44167C8.95002 2.08056 9.26668 2.86111 9.26668 3.78333V5.16667H10.25C10.6167 5.16667 10.9306 5.29722 11.1917 5.55833C11.4528 5.81944 11.5834 6.13333 11.5834 6.5V13.5667C11.5834 13.9222 11.4528 14.2306 11.1917 14.4917C10.9306 14.7528 10.6167 14.8833 10.25 14.8833H1.75002ZM1.75002 13.5667H10.25V6.5H1.75002V13.5667ZM6.00002 11.3167C6.35557 11.3167 6.65835 11.1944 6.90835 10.95C7.15835 10.7056 7.28335 10.4111 7.28335 10.0667C7.28335 9.73333 7.15835 9.43056 6.90835 9.15833C6.65835 8.88611 6.35557 8.75 6.00002 8.75C5.64446 8.75 5.34168 8.88611 5.09168 9.15833C4.84168 9.43056 4.71668 9.73333 4.71668 10.0667C4.71668 10.4111 4.84168 10.7056 5.09168 10.95C5.34168 11.1944 5.64446 11.3167 6.00002 11.3167ZM4.05002 5.16667H7.95002V3.78333C7.95002 3.22778 7.76113 2.75833 7.38335 2.375C7.00557 1.99167 6.54446 1.8 6.00002 1.8C5.45557 1.8 4.99446 1.99167 4.61668 2.375C4.23891 2.75833 4.05002 3.22778 4.05002 3.78333V5.16667Z" fill="#3D6AF2"/>
</svg>

