<svg width="16" height="8" viewBox="0 0 16 8" fill="none" xmlns="http://www.w3.org/2000/svg">
<path d="M11.5016 6.66683H4.44827C3.05494 6.66683 1.81494 5.64683 1.6816 4.26016C1.52827 2.6735 2.77494 1.3335 4.33494 1.3335H12.5749C13.4483 1.3335 14.2416 1.96016 14.3283 2.82683C14.4283 3.82683 13.6483 4.66683 12.6683 4.66683H5.66827C5.3016 4.66683 5.0016 4.36683 5.0016 4.00016C5.0016 3.6335 5.3016 3.3335 5.66827 3.3335H11.5016C11.7749 3.3335 12.0016 3.10683 12.0016 2.8335C12.0016 2.56016 11.7749 2.3335 11.5016 2.3335H5.7616C4.88827 2.3335 4.09494 2.96016 4.00827 3.82683C3.90827 4.82683 4.68827 5.66683 5.66827 5.66683H12.5549C13.9483 5.66683 15.1883 4.64683 15.3216 3.26016C15.4749 1.66683 14.2283 0.333496 12.6683 0.333496H4.48827C2.57494 0.333496 0.861602 1.7335 0.681602 3.64016C0.481602 5.8335 2.18827 7.66683 4.33494 7.66683H11.5016C11.7749 7.66683 12.0016 7.44016 12.0016 7.16683C12.0016 6.8935 11.7749 6.66683 11.5016 6.66683Z" fill="#3D6AF2"/>
</svg>
