<svg width="18" height="22" viewBox="0 0 18 22" fill="none" xmlns="http://www.w3.org/2000/svg">
<path d="M4.9749 16.775H13.0249V15.125H4.9749V16.775ZM4.9749 12.525H13.0249V10.875H4.9749V12.525ZM2.6249 21.35C2.09157 21.35 1.62907 21.1542 1.2374 20.7625C0.845736 20.3708 0.649902 19.9083 0.649902 19.375V2.625C0.649902 2.075 0.845736 1.60417 1.2374 1.2125C1.62907 0.820833 2.09157 0.625 2.6249 0.625H11.6749L17.3749 6.325V19.375C17.3749 19.9083 17.1791 20.3708 16.7874 20.7625C16.3957 21.1542 15.9249 21.35 15.3749 21.35H2.6249ZM10.6499 7.275V2.625H2.6249V19.375H15.3749V7.275H10.6499Z" fill="#222831"/>
</svg>
