<svg width="87" height="19" viewBox="0 0 87 19" fill="none" xmlns="http://www.w3.org/2000/svg">
<path d="M10.9272 14.1397C11.5052 14.1397 12.023 14.0339 12.4805 13.8222C12.9381 13.6105 13.3234 13.3076 13.6365 12.9136C13.9556 12.5197 14.1994 12.0433 14.368 11.4847C14.5365 10.9201 14.6208 10.288 14.6208 9.58821C14.6208 8.88842 14.5365 8.25921 14.368 7.70056C14.1994 7.13603 13.9556 6.65676 13.6365 6.26277C13.3234 5.86289 12.9381 5.5571 12.4805 5.3454C12.023 5.1337 11.5052 5.02786 10.9272 5.02786C10.3493 5.02786 9.83151 5.1337 9.37395 5.3454C8.91639 5.5571 8.52807 5.86289 8.20898 6.26277C7.89591 6.65676 7.65509 7.13603 7.48652 7.70056C7.31794 8.25921 7.23366 8.88842 7.23366 9.58821C7.23366 10.288 7.31794 10.9201 7.48652 11.4847C7.65509 12.0433 7.89591 12.5197 8.20898 12.9136C8.52807 13.3076 8.91639 13.6105 9.37395 13.8222C9.83151 14.0339 10.3493 14.1397 10.9272 14.1397ZM4.79534 8.69731C4.88565 7.87403 5.09035 7.11838 5.40944 6.43036C5.73455 5.74234 6.162 5.14841 6.69181 4.64856C7.22161 4.14872 7.84173 3.7606 8.55215 3.48422C9.26859 3.20783 10.0603 3.06964 10.9272 3.06964C11.8725 3.06964 12.7244 3.23429 13.483 3.5636C14.2476 3.88703 14.8978 4.33983 15.4336 4.92201C15.9694 5.50418 16.3818 6.19514 16.6708 6.99489C16.9598 7.78876 17.1043 8.6532 17.1043 9.58821C17.1043 10.5232 16.9598 11.3906 16.6708 12.1903C16.3818 12.9842 15.9694 13.6722 15.4336 14.2544C14.8978 14.8307 14.2476 15.2835 13.483 15.6128C12.7244 15.9362 11.8725 16.098 10.9272 16.098C10.0663 16.098 9.27762 15.9627 8.56118 15.6922C7.85076 15.4158 7.23065 15.0306 6.70084 14.5367C6.17705 14.0427 5.75261 13.4547 5.4275 12.7725C5.10239 12.0904 4.89468 11.3406 4.80438 10.5232H2.43831V15.9656H0V3.21077H2.43831V8.69731H4.79534Z" fill="#222831"/>
<path d="M28.5014 14.1397V5.03668H24.9343C24.862 6.28923 24.7627 7.40065 24.6363 8.37094C24.5158 9.34123 24.3744 10.1939 24.2118 10.929C24.0493 11.664 23.8686 12.2933 23.67 12.8166C23.4713 13.34 23.2576 13.781 23.0288 14.1397H28.5014ZM32.9717 14.1397V18.3208C32.9717 18.5266 32.8994 18.6913 32.7549 18.8148C32.6165 18.9383 32.4328 19 32.204 19H30.7411V15.9656H21.1504V18.3208C21.1504 18.5266 21.0781 18.6913 20.9336 18.8148C20.7952 18.9383 20.6115 19 20.3828 19H18.9198V14.1397H20.3466C20.5152 14.0515 20.6808 13.9104 20.8433 13.7163C21.0119 13.5223 21.1745 13.2488 21.331 12.896C21.4875 12.5432 21.635 12.0963 21.7735 11.5552C21.918 11.0142 22.0474 10.3556 22.1618 9.57939C22.2762 8.79728 22.3725 7.88285 22.4508 6.83612C22.5351 5.78938 22.5983 4.58094 22.6404 3.21077H30.9397V14.1397H32.9717Z" fill="#222831"/>
<path d="M40.5235 9.62349C40.969 9.62349 41.3574 9.57057 41.6885 9.46472C42.0196 9.35299 42.2935 9.19715 42.5103 8.99722C42.733 8.7914 42.8986 8.54441 43.007 8.25627C43.1153 7.96224 43.1695 7.63587 43.1695 7.27716C43.1695 6.93609 43.1153 6.62736 43.007 6.35098C42.8986 6.07459 42.7361 5.83937 42.5193 5.64531C42.3026 5.45125 42.0286 5.30424 41.6975 5.20427C41.3664 5.09842 40.9751 5.0455 40.5235 5.0455H38.7083V9.62349H40.5235ZM40.5235 3.21077C41.3965 3.21077 42.1521 3.31074 42.7902 3.51068C43.4284 3.71062 43.9552 3.98994 44.3706 4.34865C44.786 4.70737 45.0931 5.13665 45.2918 5.63649C45.4965 6.13634 45.5988 6.68323 45.5988 7.27716C45.5988 7.89461 45.4935 8.46209 45.2827 8.97957C45.072 9.49118 44.7559 9.93222 44.3345 10.3027C43.9131 10.6732 43.3833 10.9613 42.7451 11.1671C42.1129 11.373 41.3724 11.4759 40.5235 11.4759H38.7083V15.9656H36.279V3.21077H40.5235Z" fill="#222831"/>
<path d="M54.8971 11.1495L53.3077 6.90669C53.2294 6.71851 53.1482 6.49505 53.0639 6.23631C52.9796 5.97756 52.8953 5.69824 52.811 5.39833C52.7327 5.69824 52.6515 5.9805 52.5672 6.24513C52.4829 6.50387 52.4016 6.73027 52.3234 6.92433L50.743 11.1495H54.8971ZM59.1868 15.9656H57.3083C57.0976 15.9656 56.926 15.9157 56.7936 15.8157C56.6611 15.7098 56.5618 15.5805 56.4956 15.4276L55.5203 12.8254H50.1108L49.1355 15.4276C49.0873 15.5628 48.994 15.6863 48.8555 15.7981C48.7171 15.9098 48.5425 15.9656 48.3317 15.9656H46.4443L51.5738 3.21077H54.0573L59.1868 15.9656Z" fill="#222831"/>
<path d="M72.966 3.21077V15.9656H70.5277V7.974C70.5277 7.67409 70.5337 7.35949 70.5458 7.03018C70.5638 6.70087 70.6 6.35098 70.6542 5.9805C70.5337 6.30981 70.4013 6.6156 70.2568 6.89786C70.1183 7.17425 69.9829 7.41829 69.8504 7.62999L64.8564 15.2335C64.8022 15.3217 64.736 15.4099 64.6577 15.4981C64.5855 15.5864 64.5042 15.6657 64.4139 15.7363C64.3236 15.801 64.2242 15.8569 64.1159 15.9039C64.0075 15.9451 63.8961 15.9656 63.7817 15.9656H61.9575V3.21077H64.3958V11.2024C64.3958 11.5023 64.3868 11.8199 64.3687 12.1551C64.3567 12.4844 64.3236 12.8343 64.2694 13.2047C64.3898 12.8754 64.5192 12.5696 64.6577 12.2874C64.8022 12.0051 64.9437 11.7581 65.0822 11.5464L70.0671 3.9429C70.1213 3.85469 70.1845 3.76648 70.2568 3.67827C70.3351 3.59006 70.4193 3.51362 70.5097 3.44893C70.6 3.37837 70.6963 3.3225 70.7986 3.28134C70.907 3.23429 71.0214 3.21077 71.1418 3.21077H72.966ZM67.5747 1.36722C67.7974 1.36722 67.984 1.34664 68.1346 1.30548C68.2851 1.26431 68.4055 1.19375 68.4958 1.09378C68.5861 0.987929 68.6493 0.846796 68.6854 0.67038C68.7216 0.493965 68.7396 0.270505 68.7396 0H70.0581C70.2146 0 70.329 0.0646857 70.4013 0.194057C70.4796 0.323429 70.5187 0.464562 70.5187 0.617455C70.5187 0.917362 70.4495 1.18199 70.311 1.41133C70.1725 1.64067 69.9738 1.83179 69.7149 1.98468C69.4561 2.13757 69.146 2.25518 68.7848 2.33751C68.4235 2.41396 68.0202 2.45218 67.5747 2.45218C67.1291 2.45218 66.7258 2.41396 66.3645 2.33751C66.0033 2.25518 65.6932 2.13757 65.4344 1.98468C65.1755 1.83179 64.9768 1.64067 64.8383 1.41133C64.6999 1.18199 64.6306 0.917362 64.6306 0.617455C64.6306 0.464562 64.6667 0.323429 64.739 0.194057C64.8173 0.0646857 64.9347 0 65.0912 0H66.4097C66.4097 0.270505 66.4277 0.493965 66.4639 0.67038C66.5 0.846796 66.5632 0.987929 66.6535 1.09378C66.7438 1.19375 66.8612 1.26431 67.0057 1.30548C67.1562 1.34664 67.3459 1.36722 67.5747 1.36722Z" fill="#222831"/>
<path d="M82.2047 14.1133C82.6562 14.1133 83.0355 14.0604 83.3425 13.9545C83.6496 13.8487 83.8934 13.7075 84.074 13.5311C84.2607 13.3547 84.3931 13.1489 84.4714 12.9136C84.5557 12.6784 84.5978 12.4285 84.5978 12.1639C84.5978 11.8875 84.5527 11.6405 84.4624 11.4229C84.372 11.1995 84.2306 11.0113 84.0379 10.8584C83.8452 10.6996 83.5954 10.5791 83.2883 10.4967C82.9873 10.4144 82.6231 10.3733 82.1956 10.3733H79.7483V14.1133H82.2047ZM79.7483 5.0455V8.73259H81.6809C82.5117 8.73259 83.1378 8.58558 83.5593 8.29155C83.9867 7.99752 84.2005 7.53002 84.2005 6.88904C84.2005 6.22454 84.0078 5.75116 83.6225 5.4689C83.2372 5.18663 82.6351 5.0455 81.8163 5.0455H79.7483ZM81.8163 3.21077C82.6712 3.21077 83.4027 3.29016 84.0108 3.44893C84.6189 3.60771 85.1156 3.83411 85.5009 4.12813C85.8922 4.42216 86.1782 4.77793 86.3588 5.19545C86.5394 5.61297 86.6297 6.08341 86.6297 6.60678C86.6297 6.90669 86.5846 7.19483 86.4943 7.47122C86.404 7.74172 86.2625 7.99752 86.0698 8.23863C85.8832 8.47385 85.6424 8.68849 85.3474 8.88254C85.0584 9.0766 84.7122 9.24126 84.3088 9.37651C86.1029 9.7705 87 10.7173 87 12.2168C87 12.7578 86.8946 13.2577 86.6839 13.7163C86.4732 14.175 86.1662 14.572 85.7628 14.9071C85.3594 15.2365 84.8627 15.4952 84.2727 15.6834C83.6827 15.8716 83.0084 15.9656 82.2498 15.9656H77.319V3.21077H81.8163Z" fill="#222831"/>
</svg>
