<svg width="16" height="16" viewBox="0 0 16 16" fill="none" xmlns="http://www.w3.org/2000/svg">
<path d="M11.9214 12.8647C10.7488 13.6084 9.38851 14.0023 8.00002 14C4.40535 14 1.41469 11.4134 0.787354 8.00004C1.07404 6.44719 1.85511 5.02864 3.01402 3.95604L0.92802 1.87204L1.87135 0.928711L15.0707 14.1287L14.1274 15.0714L11.9207 12.8647H11.9214ZM3.95669 4.90004C3.05069 5.72377 2.41956 6.8059 2.14869 8.00004C2.35688 8.91102 2.77486 9.76081 3.36936 10.4818C3.96385 11.2027 4.71844 11.775 5.57306 12.1529C6.42767 12.5309 7.35872 12.7041 8.29208 12.6588C9.22544 12.6135 10.1353 12.351 10.9494 11.892L9.59735 10.54C9.02181 10.9026 8.34015 11.0588 7.66418 10.983C6.9882 10.9072 6.35805 10.604 5.87707 10.123C5.39609 9.64202 5.09284 9.01186 5.01706 8.33589C4.94128 7.65991 5.09748 6.97825 5.46002 6.40271L3.95669 4.90004ZM8.60935 9.55204L6.44802 7.39071C6.3294 7.69267 6.30148 8.02268 6.36769 8.34027C6.4339 8.65787 6.59137 8.94923 6.82077 9.17863C7.05017 9.40803 7.34153 9.5655 7.65912 9.63171C7.97672 9.69792 8.30673 9.67 8.60869 9.55138L8.60935 9.55204ZM13.8714 11.0614L12.9174 10.108C13.363 9.47291 13.6803 8.75683 13.8514 8.00004C13.6702 7.20653 13.3295 6.45814 12.8501 5.80037C12.3707 5.14261 11.7625 4.5892 11.0626 4.17378C10.3627 3.75837 9.58555 3.48962 8.77851 3.38389C7.97147 3.27815 7.15136 3.33763 6.36802 3.55871L5.31602 2.50671C6.14735 2.18004 7.05335 2.00004 8.00002 2.00004C11.5947 2.00004 14.5854 4.58671 15.2127 8.00004C15.0084 9.11051 14.5493 10.1584 13.8714 11.0614ZM7.81535 5.00538C8.23969 4.97915 8.66476 5.04342 9.06238 5.19392C9.46 5.34442 9.82109 5.57772 10.1217 5.87834C10.4223 6.17897 10.6556 6.54006 10.8061 6.93768C10.9566 7.3353 11.0209 7.76037 10.9947 8.18471L7.81469 5.00538H7.81535Z" fill="#222831"/>
</svg>
