<svg width="16" height="12" viewBox="0 0 16 12" fill="none" xmlns="http://www.w3.org/2000/svg">
<path d="M7.99999 0C11.5947 0 14.5853 2.58667 15.2127 6C14.586 9.41333 11.5947 12 7.99999 12C4.40532 12 1.41466 9.41333 0.787323 6C1.41399 2.58667 4.40532 0 7.99999 0ZM7.99999 10.6667C9.35964 10.6664 10.6789 10.2045 11.7419 9.35678C12.8049 8.50901 13.5486 7.32552 13.8513 6C13.5475 4.67554 12.8033 3.49334 11.7404 2.64668C10.6775 1.80003 9.35886 1.33902 7.99999 1.33902C6.64112 1.33902 5.32245 1.80003 4.25957 2.64668C3.1967 3.49334 2.4525 4.67554 2.14866 6C2.45139 7.32552 3.19511 8.50901 4.25809 9.35678C5.32107 10.2045 6.64034 10.6664 7.99999 10.6667ZM7.99999 9C7.20434 9 6.44128 8.68393 5.87867 8.12132C5.31606 7.55871 4.99999 6.79565 4.99999 6C4.99999 5.20435 5.31606 4.44129 5.87867 3.87868C6.44128 3.31607 7.20434 3 7.99999 3C8.79564 3 9.5587 3.31607 10.1213 3.87868C10.6839 4.44129 11 5.20435 11 6C11 6.79565 10.6839 7.55871 10.1213 8.12132C9.5587 8.68393 8.79564 9 7.99999 9ZM7.99999 7.66667C8.44202 7.66667 8.86594 7.49107 9.1785 7.17851C9.49106 6.86595 9.66666 6.44203 9.66666 6C9.66666 5.55797 9.49106 5.13405 9.1785 4.82149C8.86594 4.50893 8.44202 4.33333 7.99999 4.33333C7.55796 4.33333 7.13404 4.50893 6.82148 4.82149C6.50892 5.13405 6.33332 5.55797 6.33332 6C6.33332 6.44203 6.50892 6.86595 6.82148 7.17851C7.13404 7.49107 7.55796 7.66667 7.99999 7.66667Z" fill="#222831"/>
</svg>
