<svg width="48" height="48" viewBox="0 0 48 48" fill="none" xmlns="http://www.w3.org/2000/svg">
<path d="M8 8H20V20H8V8ZM40 8V20H28V8H40ZM28 30H32V26H28V22H32V26H36V22H40V26H36V30H40V36H36V40H32V36H26V40H22V32H28V30ZM32 30V36H36V30H32ZM8 40V28H20V40H8ZM12 12V16H16V12H12ZM32 12V16H36V12H32ZM12 32V36H16V32H12ZM8 22H12V26H8V22ZM18 22H26V30H22V26H18V22ZM22 12H26V20H22V12ZM4 4V12H0V4C0 2.93913 0.421427 1.92172 1.17157 1.17157C1.92172 0.421427 2.93913 0 4 0L12 0V4H4ZM44 0C45.0609 0 46.0783 0.421427 46.8284 1.17157C47.5786 1.92172 48 2.93913 48 4V12H44V4H36V0H44ZM4 36V44H12V48H4C2.93913 48 1.92172 47.5786 1.17157 46.8284C0.421427 46.0783 0 45.0609 0 44V36H4ZM44 44V36H48V44C48 45.0609 47.5786 46.0783 46.8284 46.8284C46.0783 47.5786 45.0609 48 44 48H36V44H44Z" fill="#BDC3C7"/>
</svg>
