<svg width="14" height="14" viewBox="0 0 14 14" fill="none" xmlns="http://www.w3.org/2000/svg">
<path d="M12.2499 13.2497L7.81654 8.81641C7.49431 9.08307 7.11098 9.29418 6.66654 9.44974C6.22209 9.6053 5.74987 9.68307 5.24987 9.68307C3.99431 9.68307 2.93598 9.24974 2.07487 8.38307C1.21376 7.51641 0.783203 6.47196 0.783203 5.24974C0.783203 4.02752 1.21654 2.98307 2.0832 2.11641C2.94987 1.24974 3.99431 0.816406 5.21654 0.816406C6.44987 0.816406 7.49431 1.24974 8.34987 2.11641C9.20543 2.98307 9.6332 4.02752 9.6332 5.24974C9.6332 5.73863 9.56098 6.19974 9.41654 6.63307C9.27209 7.06641 9.05543 7.47752 8.76654 7.86641L13.2165 12.2831L12.2499 13.2497ZM5.2332 8.34974C6.08876 8.34974 6.81654 8.04696 7.41654 7.44141C8.01654 6.83585 8.31654 6.1053 8.31654 5.24974C8.31654 4.39418 8.01654 3.66363 7.41654 3.05807C6.81654 2.45252 6.08876 2.14974 5.2332 2.14974C4.35543 2.14974 3.61376 2.45252 3.0082 3.05807C2.40265 3.66363 2.09987 4.39418 2.09987 5.24974C2.09987 6.1053 2.40265 6.83585 3.0082 7.44141C3.61376 8.04696 4.35543 8.34974 5.2332 8.34974Z" fill="#8E969B"/>
</svg>
