<svg width="22" height="22" viewBox="0 0 22 22" fill="none" xmlns="http://www.w3.org/2000/svg">
<path d="M8.3999 21.35L7.8749 18.1C7.60824 18 7.32074 17.8625 7.0124 17.6875C6.70407 17.5125 6.44157 17.3333 6.2249 17.15L3.1749 18.575L0.524902 13.875L3.3249 11.85C3.29157 11.7333 3.27074 11.5917 3.2624 11.425C3.25407 11.2583 3.2499 11.1167 3.2499 11C3.2499 10.8833 3.25407 10.7417 3.2624 10.575C3.27074 10.4083 3.29157 10.2667 3.3249 10.15L0.524902 8.1L3.1749 3.45L6.2499 4.85C6.46657 4.66667 6.7249 4.49167 7.0249 4.325C7.3249 4.15833 7.60824 4.03333 7.8749 3.95L8.3999 0.625H13.5999L14.1249 3.925C14.3916 4.025 14.6791 4.15417 14.9874 4.3125C15.2957 4.47083 15.5582 4.65 15.7749 4.85L18.8249 3.45L21.4749 8.1L18.6749 10.1C18.6916 10.2333 18.7082 10.3833 18.7249 10.55C18.7416 10.7167 18.7499 10.8667 18.7499 11C18.7499 11.1333 18.7416 11.2792 18.7249 11.4375C18.7082 11.5958 18.6916 11.7417 18.6749 11.875L21.4749 13.875L18.8249 18.575L15.7499 17.15C15.5332 17.3333 15.2791 17.5167 14.9874 17.7C14.6957 17.8833 14.4082 18.0167 14.1249 18.1L13.5999 21.35H8.3999ZM10.9749 14.25C11.8749 14.25 12.6416 13.9333 13.2749 13.3C13.9082 12.6667 14.2249 11.9 14.2249 11C14.2249 10.1 13.9082 9.33333 13.2749 8.7C12.6416 8.06667 11.8749 7.75 10.9749 7.75C10.0749 7.75 9.30824 8.06667 8.6749 8.7C8.04157 9.33333 7.7249 10.1 7.7249 11C7.7249 11.9 8.04157 12.6667 8.6749 13.3C9.30824 13.9333 10.0749 14.25 10.9749 14.25ZM10.9749 12.75C10.4749 12.75 10.0582 12.5792 9.7249 12.2375C9.39157 11.8958 9.2249 11.4833 9.2249 11C9.2249 10.5167 9.39157 10.1042 9.7249 9.7625C10.0582 9.42083 10.4749 9.25 10.9749 9.25C11.4582 9.25 11.8707 9.42083 12.2124 9.7625C12.5541 10.1042 12.7249 10.5167 12.7249 11C12.7249 11.4833 12.5541 11.8958 12.2124 12.2375C11.8707 12.5792 11.4582 12.75 10.9749 12.75ZM10.0249 19.375H11.9749L12.3249 16.575C12.8916 16.4417 13.4291 16.2333 13.9374 15.95C14.4457 15.6667 14.8999 15.3167 15.2999 14.9L17.9499 16.05L18.8249 14.425L16.4999 12.725C16.5666 12.4417 16.6207 12.1583 16.6624 11.875C16.7041 11.5917 16.7249 11.3 16.7249 11C16.7249 10.7 16.7082 10.4083 16.6749 10.125C16.6416 9.84167 16.5832 9.55833 16.4999 9.275L18.8249 7.575L17.9499 5.95L15.2999 7.1C14.9166 6.65 14.4749 6.27083 13.9749 5.9625C13.4749 5.65417 12.9249 5.46667 12.3249 5.4L11.9749 2.625H10.0249L9.6749 5.4C9.09157 5.5 8.54574 5.7 8.0374 6C7.52907 6.3 7.0749 6.66667 6.6749 7.1L4.0499 5.95L3.1749 7.575L5.4749 9.25C5.40824 9.55 5.35407 9.84167 5.3124 10.125C5.27074 10.4083 5.2499 10.7 5.2499 11C5.2499 11.3 5.27074 11.5958 5.3124 11.8875C5.35407 12.1792 5.40824 12.4667 5.4749 12.75L3.1749 14.425L4.0499 16.05L6.6749 14.9C7.09157 15.3167 7.55407 15.6708 8.0624 15.9625C8.57074 16.2542 9.10824 16.4667 9.6749 16.6L10.0249 19.375Z" fill="#222831"/>
</svg>
