<svg width="16" height="16" viewBox="0 0 16 16" fill="none" xmlns="http://www.w3.org/2000/svg">
<g clip-path="url(#clip0_1605_22655)">
<path d="M11.3893 10.541C12.0163 9.87855 12.4354 9.04695 12.5948 8.14894C12.7542 7.25093 12.6471 6.32589 12.2865 5.48814C11.9259 4.6504 11.3277 3.93668 10.5659 3.43519C9.80411 2.93371 8.91205 2.66646 8 2.66646C7.08795 2.66646 6.19589 2.93371 5.43408 3.43519C4.67227 3.93668 4.07411 4.6504 3.71353 5.48814C3.35295 6.32589 3.24576 7.25093 3.4052 8.14894C3.56464 9.04695 3.98373 9.87855 4.61067 10.541C4.97045 9.96685 5.47024 9.49362 6.06312 9.1657C6.65599 8.83777 7.32248 8.66592 8 8.66629C8.67752 8.66592 9.34402 8.83777 9.93689 9.1657C10.5298 9.49362 11.0296 9.96685 11.3893 10.541ZM5.59 11.523L8 13.9323L10.41 11.523C10.1939 11.0667 9.85266 10.6811 9.42603 10.4111C8.9994 10.1411 8.50489 9.99778 8 9.99778C7.49512 9.99778 7.0006 10.1411 6.57397 10.4111C6.14734 10.6811 5.80612 11.0667 5.59 11.523ZM8 15.8183L3.75734 11.5756C2.91823 10.7365 2.34679 9.66741 2.11529 8.50352C1.88378 7.33964 2.0026 6.13324 2.45673 5.03689C2.91086 3.94054 3.6799 3.00347 4.66659 2.34419C5.65328 1.6849 6.81332 1.33301 8 1.33301C9.18669 1.33301 10.3467 1.6849 11.3334 2.34419C12.3201 3.00347 13.0891 3.94054 13.5433 5.03689C13.9974 6.13324 14.1162 7.33964 13.8847 8.50352C13.6532 9.66741 13.0818 10.7365 12.2427 11.5756L8 15.8183ZM8 6.66629C8.17681 6.66629 8.34638 6.59605 8.47141 6.47103C8.59643 6.346 8.66667 6.17643 8.66667 5.99962C8.66667 5.82281 8.59643 5.65324 8.47141 5.52822C8.34638 5.40319 8.17681 5.33296 8 5.33296C7.82319 5.33296 7.65362 5.40319 7.5286 5.52822C7.40357 5.65324 7.33334 5.82281 7.33334 5.99962C7.33334 6.17643 7.40357 6.346 7.5286 6.47103C7.65362 6.59605 7.82319 6.66629 8 6.66629ZM8 7.99962C7.46957 7.99962 6.96086 7.78891 6.58579 7.41384C6.21072 7.03876 6 6.53006 6 5.99962C6 5.46919 6.21072 4.96048 6.58579 4.58541C6.96086 4.21034 7.46957 3.99962 8 3.99962C8.53044 3.99962 9.03914 4.21034 9.41422 4.58541C9.78929 4.96048 10 5.46919 10 5.99962C10 6.53006 9.78929 7.03876 9.41422 7.41384C9.03914 7.78891 8.53044 7.99962 8 7.99962Z" fill="#222831"/>
</g>
<defs>
<clipPath id="clip0_1605_22655">
<rect width="16" height="16" fill="white"/>
</clipPath>
</defs>
</svg>
